<?xml version="1.0" encoding="utf-8"?>
<!-- Generator: Adobe Illustrator 24.0.1, SVG Export Plug-In . SVG Version: 6.00 Build 0)  -->
<svg version="1.1" id="Layer_1" xmlns="http://www.w3.org/2000/svg" xmlns:xlink="http://www.w3.org/1999/xlink" x="0px" y="0px"
	 viewBox="0 0 395.4 395.4" style="enable-background:new 0 0 395.4 395.4;" xml:space="preserve">
<style type="text/css">
	.st0{fill:#FFFFFF;}
	.st1{fill:#370068;}
	.st2{fill:#C19300;}
	.st3{fill:#FFFFFF;stroke:#C19300;stroke-miterlimit:10;}
	.st4{fill:#FF0000;stroke:#FFFFFF;stroke-width:2;stroke-miterlimit:10;}
	.st5{fill:none;stroke:#FFFFFF;stroke-miterlimit:10;}
	.st6{display:none;}
	.st7{display:inline;fill:#FF0000;stroke:#FFFFFF;stroke-width:2;stroke-miterlimit:10;}
	.st8{display:inline;fill:#FF0000;stroke:#FFFFFF;stroke-width:0.25;stroke-miterlimit:10;}
	.st9{display:inline;fill:#FFFFFF;stroke:#FFFFFF;stroke-width:0.25;stroke-miterlimit:10;}
	.st10{display:inline;fill:#FF0000;}
	.st11{fill:#8C8C8C;}
	.st12{fill:#4A2999;}
</style>
<g id="Layer_1_1_">
	
		<image style="display:none;overflow:visible;enable-background:new    ;" width="831" height="700" xlink:href="6E6E726E.jpeg"  transform="matrix(0.5696 0 0 0.5696 -572.2593 -19.1299)">
	</image>
	<g>
		<circle class="st0" cx="191.1" cy="201.8" r="154.7"/>
		<circle class="st0" cx="190.9" cy="200.8" r="111.2"/>
	</g>
	<g>
		<path class="st1" d="M191,349.6c-81.9,0-148.5-66.6-148.5-148.5S109.1,52.6,191,52.6s148.5,66.6,148.5,148.5
			S272.9,349.6,191,349.6z M190.9,91.3c-60.4,0-109.5,49.1-109.5,109.5s49.1,109.5,109.5,109.5s109.5-49.1,109.5-109.5
			S251.3,91.3,190.9,91.3z"/>
		<path class="st2" d="M191,54.1c39.3,0,76.2,15.3,103.9,43.1c27.8,27.8,43.1,64.7,43.1,103.9s-15.3,76.2-43.1,103.9
			c-27.8,27.8-64.7,43.1-103.9,43.1S114.8,332.8,87,305C59.3,277.2,44,240.3,44,201.1S59.3,124.9,87,97.1
			C114.8,69.4,151.7,54.1,191,54.1 M190.9,311.7c61.2,0,111-49.8,111-111c0-61.2-49.8-111-111-111c-61.2,0-111,49.8-111,111
			C79.9,262,129.7,311.7,190.9,311.7 M191,51.1c-82.8,0-150,67.2-150,150s67.2,150,150,150s150-67.2,150-150S273.8,51.1,191,51.1
			L191,51.1z M190.9,308.7c-59.6,0-108-48.3-108-108c0-59.6,48.3-108,108-108c59.6,0,108,48.3,108,108
			C298.9,260.4,250.5,308.7,190.9,308.7L190.9,308.7z"/>
	</g>
	<g>
		<path class="st3" d="M124.6,84.8c0.6,0.9,1.1,1.9,1.4,3s0.3,2.1,0.2,3.1c-0.3,1.3-0.7,2.6-1.4,3.7c-0.7,1.1-1.8,2.1-3.3,3.2
			l-3.2,2.2l4.5,6.5l-5.2,3.6L103.6,90l8.5-5.9c1.3-0.9,2.4-1.5,3.5-1.9s2-0.6,3-0.6c1.2,0,2.3,0.2,3.3,0.8
			C122.9,82.8,123.8,83.6,124.6,84.8z M119.3,88.6c-0.4-0.6-0.9-0.9-1.5-1.1s-1.1-0.2-1.7-0.1c-0.7,0.2-1.3,0.4-1.8,0.7
			c-0.5,0.3-1.2,0.8-2.1,1.4l-0.9,0.6l4.2,6l1.5-1c0.9-0.6,1.6-1.2,2.1-1.7s0.8-1.1,1-1.6c0.1-0.5,0.1-1,0-1.5
			C120,89.7,119.7,89.2,119.3,88.6z"/>
		<path class="st3" d="M154,80.5c1.1,2.8,1.2,5.3,0.1,7.5c-1.1,2.2-3.3,3.9-6.6,5.3c-3.3,1.3-6.1,1.6-8.4,0.8
			c-2.3-0.8-4-2.6-5.2-5.4L128,74.2l5.9-2.4l5.8,14.1c0.6,1.6,1.4,2.6,2.4,3.1s2.2,0.4,3.7-0.2c1.5-0.6,2.4-1.4,2.8-2.4
			c0.4-1,0.2-2.3-0.4-4l-5.8-14.1l5.9-2.4L154,80.5z"/>
		<path class="st3" d="M180,84.3l-17.3,3.2l-4.4-24l6.2-1.1l3.5,19.4l11.1-2L180,84.3z"/>
		<path class="st3" d="M203.9,67.7c0,1.1-0.2,2.2-0.6,3.2c-0.4,1-1,1.9-1.7,2.6c-1,0.9-2.1,1.7-3.3,2.1c-1.2,0.5-2.7,0.7-4.5,0.7
			l-3.9-0.1l-0.1,8l-6.3-0.1l0.4-24.4l10.4,0.2c1.6,0,2.9,0.2,3.9,0.5s2,0.7,2.8,1.3c1,0.7,1.7,1.5,2.2,2.5
			C203.7,65.1,203.9,66.3,203.9,67.7z M197.4,67.7c0-0.7-0.2-1.3-0.5-1.8c-0.4-0.5-0.8-0.9-1.3-1.1c-0.6-0.3-1.3-0.4-1.9-0.5
			s-1.4-0.1-2.5-0.1l-1.1,0l-0.1,7.3l1.8,0c1.1,0,2,0,2.6-0.2c0.7-0.1,1.3-0.4,1.8-0.8c0.4-0.3,0.7-0.8,0.9-1.2
			C197.3,69,197.4,68.4,197.4,67.7z"/>
		<path class="st3" d="M220.8,87.9l-14-2.8l0.9-4.3l3.9,0.8l3.1-15.5l-3.9-0.8l0.9-4.3l14,2.8l-0.9,4.2l-3.9-0.8l-3.1,15.5l3.9,0.8
			L220.8,87.9z"/>
		<path class="st3" d="M250.7,77.8l-7.1-2.8l-7.2,18.3l-5.9-2.3l7.2-18.3l-7.1-2.8l1.7-4.4l20.1,7.9L250.7,77.8z"/>
		<path class="st3" d="M272.9,100.8c-2.2,3.2-4.8,5.2-8,5.8c-3.1,0.7-6.3-0.1-9.6-2.3c-3.3-2.2-5.2-4.9-5.7-8s0.2-6.3,2.4-9.6
			c2.2-3.3,4.8-5.2,8-5.8s6.3,0.1,9.6,2.3s5.2,4.8,5.8,8C275.9,94.3,275,97.5,272.9,100.8z M262.5,101.3c0.9-0.3,1.8-0.8,2.6-1.4
			s1.6-1.6,2.4-2.7c0.8-1.2,1.4-2.3,1.7-3.4c0.3-1,0.4-2,0.3-2.8c-0.1-0.9-0.4-1.6-0.8-2.3s-1-1.2-1.6-1.6c-0.7-0.4-1.4-0.8-2.1-0.9
			s-1.5-0.1-2.4,0.1c-0.8,0.2-1.6,0.7-2.5,1.4s-1.7,1.6-2.5,2.8c-0.8,1.2-1.4,2.3-1.7,3.4c-0.3,1-0.4,2-0.3,2.8
			c0.1,0.8,0.4,1.6,0.8,2.3c0.4,0.7,1,1.2,1.7,1.7s1.4,0.8,2.2,0.9C260.8,101.5,261.6,101.5,262.5,101.3z"/>
	</g>
	<g>
		<path class="st3" d="M108.2,292.1l-5.7-5.7l-2.3,2.3l5.3,5.3l-2.4,2.4l-5.3-5.3l-5.3,5.3l-3.2-3.2l12.4-12.3l8.8,8.9L108.2,292.1z
			"/>
		<path class="st3" d="M120.2,308.3c-1.7,2.2-3.7,3.5-5.9,3.8s-4.5-0.3-6.8-2c-2.2-1.7-3.5-3.7-3.8-5.9c-0.3-2.3,0.4-4.5,2.1-6.7
			c1.7-2.2,3.7-3.5,5.9-3.9c2.3-0.3,4.5,0.4,6.7,2s3.5,3.7,3.8,5.9S121.9,306.1,120.2,308.3z M112.8,308.2c0.7-0.2,1.3-0.5,1.9-0.9
			c0.6-0.5,1.2-1.1,1.8-1.8c0.6-0.8,1.1-1.6,1.3-2.4s0.4-1.4,0.3-2c0-0.6-0.2-1.2-0.5-1.6s-0.7-0.9-1.1-1.2s-0.9-0.6-1.5-0.7
			c-0.5-0.1-1.1-0.2-1.7,0c-0.6,0.1-1.2,0.4-1.9,0.9s-1.3,1.1-1.9,1.9c-0.6,0.8-1.1,1.6-1.3,2.3c-0.3,0.7-0.4,1.4-0.3,2
			c0,0.6,0.2,1.1,0.5,1.6c0.3,0.5,0.7,0.9,1.1,1.3s1,0.6,1.5,0.7C111.6,308.4,112.2,308.4,112.8,308.2z"/>
		<path class="st3" d="M138.1,318.1c-1.3,2.5-3.1,4-5.2,4.7c-2.2,0.7-4.5,0.4-7-1c-2.5-1.3-4-3.1-4.7-5.3s-0.3-4.5,1-7
			c1.3-2.5,3.1-4,5.3-4.7s4.5-0.4,7,1c2.5,1.3,4,3.1,4.7,5.3C139.8,313.3,139.5,315.6,138.1,318.1z M130.8,319.2
			c0.6-0.3,1.2-0.7,1.8-1.2s1-1.2,1.5-2.1c0.5-0.9,0.8-1.8,0.9-2.5s0.1-1.4,0-2c-0.1-0.6-0.4-1.1-0.7-1.5c-0.4-0.4-0.8-0.8-1.3-1
			c-0.5-0.3-1-0.4-1.6-0.5s-1.1,0-1.7,0.2c-0.6,0.2-1.1,0.6-1.7,1.1c-0.6,0.6-1.1,1.3-1.6,2.2c-0.5,0.9-0.8,1.8-0.9,2.5
			c-0.1,0.8-0.1,1.4,0,2s0.4,1.1,0.7,1.5c0.4,0.4,0.8,0.8,1.3,1.1c0.5,0.3,1.1,0.4,1.6,0.5C129.7,319.5,130.2,319.4,130.8,319.2z"/>
		<path class="st3" d="M156.1,318.9l-5.1-1.9l-4.8,13.2l-4.2-1.5l4.8-13.2l-5.1-1.9l1.1-3.2l14.5,5.3L156.1,318.9z"/>
		<path class="st3" d="M170.8,331.1c-0.2,0.8-0.5,1.5-1,2.1s-1,1-1.7,1.3c-0.8,0.4-1.6,0.6-2.4,0.6c-0.9,0-1.9-0.1-3.1-0.3l-7.4-1.6
			l3.7-17.1l6.6,1.4c1.4,0.3,2.4,0.6,3,0.8s1.2,0.6,1.8,1c0.6,0.5,1,1,1.2,1.6c0.2,0.6,0.2,1.3,0.1,2c-0.2,0.8-0.6,1.5-1.1,2
			s-1.3,0.9-2.2,1.1l0,0.1c1.1,0.5,1.9,1.1,2.4,2C170.9,329,171,330,170.8,331.1z M166.2,330.1c0.1-0.5,0.1-1,0-1.3
			c-0.1-0.3-0.5-0.6-0.9-0.9c-0.3-0.2-0.8-0.3-1.4-0.5s-1.2-0.3-1.9-0.4l-1-0.2l-0.9,4.3l0.3,0.1c1.2,0.3,2.1,0.5,2.7,0.6
			c0.5,0.1,1.1,0.1,1.5,0c0.5-0.1,0.9-0.3,1.1-0.6S166.1,330.5,166.2,330.1z M166.6,322.9c0.1-0.3,0.1-0.6,0-0.9s-0.3-0.6-0.6-0.8
			c-0.3-0.2-0.7-0.3-1.1-0.5c-0.5-0.1-1.1-0.3-2-0.5l-0.4-0.1l-0.8,3.6l0.7,0.1c0.7,0.1,1.3,0.3,1.8,0.4c0.5,0.1,0.9,0.1,1.2,0
			c0.4-0.1,0.7-0.3,0.9-0.5C166.4,323.6,166.6,323.3,166.6,322.9z"/>
		<path class="st3" d="M190.3,338l-4.6-0.3l-1-3.6l-6.4-0.5l-1.5,3.4l-4.5-0.3l7.6-17l5.2,0.4L190.3,338z M183.8,330.9l-1.7-6.4
			l-2.6,6.1L183.8,330.9z"/>
		<path class="st3" d="M206.5,337.1l-12.6,0.8l-1.1-17.4l4.5-0.3l0.8,14l8.1-0.5L206.5,337.1z"/>
		<path class="st3" d="M222.6,334.3l-12.4,2.2l-3.1-17.2l4.4-0.8l2.5,13.9l8-1.4L222.6,334.3z"/>
		<path class="st3" d="M242.2,328.3c-1.2,0.5-2.4,0.7-3.6,0.8s-2.3-0.1-3.3-0.6s-1.9-1.1-2.7-2c-0.8-0.9-1.5-2-2-3.4
			c-0.5-1.3-0.8-2.5-0.8-3.7s0.2-2.3,0.6-3.4c0.4-1,1.1-1.9,2-2.7s2-1.4,3.2-1.9c0.7-0.3,1.3-0.5,1.9-0.6c0.6-0.1,1.1-0.2,1.6-0.3
			c0.5,0,1-0.1,1.5,0c0.5,0,0.9,0,1.2,0.1l1.5,3.9l-0.5,0.2c-0.3-0.1-0.6-0.2-1-0.3s-0.8-0.2-1.3-0.3s-1-0.1-1.5-0.1
			c-0.5,0-1.1,0.1-1.6,0.3c-0.6,0.2-1.1,0.5-1.6,0.9s-0.8,0.9-1.1,1.5c-0.3,0.6-0.4,1.3-0.4,2c0,0.8,0.2,1.7,0.6,2.6
			c0.4,1,0.9,1.8,1.4,2.4s1.1,1,1.7,1.2c0.6,0.2,1.2,0.3,1.8,0.3s1.2-0.2,1.7-0.4c0.5-0.2,1-0.5,1.4-0.8c0.4-0.3,0.8-0.7,1.1-1.2
			c0.3-0.4,0.5-0.7,0.7-1.1c0.2-0.4,0.4-0.7,0.5-0.9l0.4-0.2l1.5,3.9c-0.3,0.3-0.7,0.7-1,1c-0.3,0.3-0.6,0.6-1,0.9
			c-0.5,0.4-0.9,0.7-1.4,0.9C243.6,327.7,243,328,242.2,328.3z"/>
		<path class="st3" d="M262.9,317.8l-11.1,6l-8.3-15.3l4-2.1l6.7,12.4l7.1-3.9L262.9,317.8z"/>
		<path class="st3" d="M274.8,301.6c1.3,1.7,1.7,3.5,1.3,5.2s-1.6,3.3-3.7,4.8s-4,2.2-5.7,2c-1.7-0.1-3.2-1.1-4.5-2.8l-6.6-9
			l3.7-2.7l6.4,8.8c0.7,1,1.5,1.6,2.2,1.7c0.8,0.2,1.6-0.1,2.5-0.7c0.9-0.7,1.4-1.4,1.5-2.1c0.1-0.8-0.3-1.7-1-2.7l-6.4-8.8l3.6-2.7
			L274.8,301.6z"/>
		<path class="st3" d="M289.5,288.8c0.6,0.6,1,1.3,1.2,2s0.3,1.4,0.2,2.2c-0.1,0.9-0.4,1.6-0.8,2.4s-1.1,1.5-2,2.4l-5.4,5.3
			l-12.2-12.4l4.8-4.8c1-1,1.8-1.7,2.3-2.1c0.5-0.4,1.1-0.7,1.8-0.9c0.7-0.2,1.4-0.3,2-0.1c0.6,0.2,1.2,0.5,1.7,1
			c0.6,0.6,1,1.3,1.1,2.1s0,1.6-0.3,2.4l0.1,0.1c1-0.6,2-0.9,2.9-0.9S288.7,287.9,289.5,288.8z M280.4,287.7
			c-0.2-0.2-0.5-0.4-0.8-0.5s-0.6-0.1-1,0.1c-0.3,0.1-0.7,0.4-1,0.7s-0.9,0.8-1.5,1.4l-0.3,0.3l2.6,2.6l0.5-0.5
			c0.5-0.5,0.9-0.9,1.3-1.3s0.6-0.7,0.7-1c0.2-0.4,0.2-0.8,0.1-1.1C280.9,288.3,280.7,288,280.4,287.7z M286.2,292
			c-0.4-0.4-0.8-0.6-1.1-0.7c-0.4-0.1-0.8,0-1.3,0.3c-0.3,0.2-0.7,0.5-1.1,0.9c-0.4,0.4-0.9,0.9-1.4,1.4l-0.7,0.7l3,3.1l0.2-0.2
			c0.9-0.9,1.5-1.5,1.9-1.9s0.7-0.8,0.9-1.3c0.2-0.5,0.2-0.9,0.1-1.2C286.7,292.6,286.5,292.3,286.2,292z"/>
	</g>
	<g>
		<circle class="st4" cx="63.6" cy="183.1" r="12.7"/>
		<path class="st5" d="M56.2,172.7l1.2,0.2c0,0,8,1.5,12.4,7.3c0,0-2.2,5.8-5.8,11.7c0,0-6.2-0.4-12-5.5l-0.9-1"/>
		<path class="st5" d="M52.8,175.8c0,0,9.1,4.3,15.2,8.6"/>
		<path class="st5" d="M51.2,180.2c0,0,6.2,5.7,15.3,7.1"/>
		<line class="st5" x1="69.4" y1="179.8" x2="76" y2="179.8"/>
		<path class="st5" d="M65.9,176.5c0,0,2.8-1.8,7.9-1.1"/>
		<path class="st5" d="M62.1,174.5c0,0,4.4-3.4,8-2.6"/>
		<path class="st5" d="M63.6,191.9c0,0,1.4,0.9,3,1.7c0.7,0.4,1.5,0.7,2.1,0.9"/>
		<path class="st5" d="M72.7,179.8c0,0-0.9,8.6-5.7,13.8"/>
		<path class="st5" d="M56.1,189.3c0,0,0.2,2.8,1.2,4.7"/>
		<path class="st5" d="M59.3,190.7c0,0,1.5,3.2,3.9,4.8"/>
	</g>
	<g>
		<circle class="st4" cx="318.9" cy="219" r="12.8"/>
		<path class="st5" d="M326.3,229.4l-1.2-0.2c0,0-8-1.5-12.4-7.3c0,0,2.2-5.8,5.8-11.7c0,0,6.2,0.4,12,5.5l0.9,1"/>
		<path class="st5" d="M329.7,226.3c0,0-9.1-4.3-15.2-8.6"/>
		<path class="st5" d="M331.3,221.9c0,0-6.2-5.7-15.4-7.1"/>
		<line class="st5" x1="313.1" y1="222.3" x2="306.5" y2="222.3"/>
		<path class="st5" d="M316.6,225.6c0,0-2.8,1.8-7.9,1.1"/>
		<path class="st5" d="M320.4,227.7c0,0-4.4,3.4-8,2.6"/>
		<path class="st5" d="M318.9,210.3c0,0-1.4-0.9-3-1.7c-0.7-0.4-1.5-0.7-2.1-0.9"/>
		<path class="st5" d="M309.8,222.3c0,0,0.9-8.6,5.7-13.8"/>
		<path class="st5" d="M326.4,212.8c0,0-0.2-2.8-1.2-4.7"/>
		<path class="st5" d="M323.2,211.4c0,0-1.5-3.2-3.9-4.8"/>
	</g>
	<g class="st6">
		<circle class="st7" cx="64.3" cy="219.4" r="12.8"/>
		<path class="st8" d="M64.9,219.6"/>
		<path class="st8" d="M64.4,219"/>
		<polygon class="st9" points="60.7,222.3 52.5,222.3 52.5,216.3 60.7,216.3 63.6,219.3 		"/>
		<polygon class="st9" points="68.2,216.3 76.5,216.3 76.5,222.3 68.3,222.3 65.3,219.3 		"/>
		<polygon class="st9" points="61.5,215.5 61.5,207.3 67.5,207.3 67.5,215.5 64.5,218.4 		"/>
		<circle class="st10" cx="64.5" cy="213.3" r="2.2"/>
		<polygon class="st9" points="67.5,223 67.5,231.3 61.5,231.3 61.5,223.1 64.5,220.1 		"/>
		<circle class="st10" cx="70.6" cy="219.3" r="2.2"/>
		<circle class="st10" cx="64.5" cy="225.4" r="2.2"/>
		<circle class="st10" cx="58.4" cy="219.3" r="2.2"/>
	</g>
	<g class="st6">
		<circle class="st7" cx="318.2" cy="219.4" r="12.8"/>
		<path class="st8" d="M318.8,219.6"/>
		<path class="st8" d="M318.3,219"/>
		<polygon class="st9" points="314.6,222.3 306.4,222.3 306.4,216.3 314.6,216.3 317.5,219.3 		"/>
		<polygon class="st9" points="322.1,216.3 330.4,216.3 330.4,222.3 322.1,222.3 319.2,219.3 		"/>
		<polygon class="st9" points="315.4,215.5 315.3,207.3 321.4,207.3 321.4,215.5 318.4,218.4 		"/>
		<circle class="st10" cx="318.4" cy="213.3" r="2.2"/>
		<polygon class="st9" points="321.4,223 321.4,231.3 315.4,231.3 315.3,223.1 318.4,220.1 		"/>
		<circle class="st10" cx="324.5" cy="219.3" r="2.2"/>
		<circle class="st10" cx="318.4" cy="225.4" r="2.2"/>
		<circle class="st10" cx="312.3" cy="219.3" r="2.2"/>
	</g>
	<g>
		<circle class="st4" cx="63.5" cy="219" r="12.8"/>
		<path class="st5" d="M56.1,208.6l1.2,0.2c0,0,8,1.5,12.4,7.3c0,0-2.2,5.8-5.8,11.7c0,0-6.2-0.4-12-5.5l-0.9-1"/>
		<path class="st5" d="M52.7,211.7c0,0,9.1,4.3,15.2,8.6"/>
		<path class="st5" d="M51.1,216.1c0,0,6.2,5.7,15.3,7.1"/>
		<line class="st5" x1="69.3" y1="215.7" x2="75.9" y2="215.7"/>
		<path class="st5" d="M65.8,212.4c0,0,2.8-1.8,7.9-1.1"/>
		<path class="st5" d="M62.1,210.4c0,0,4.4-3.4,8-2.6"/>
		<path class="st5" d="M63.5,227.8c0,0,1.4,0.9,3,1.7c0.7,0.4,1.5,0.7,2.1,0.9"/>
		<path class="st5" d="M72.6,215.7c0,0-0.9,8.6-5.7,13.8"/>
		<path class="st5" d="M56,225.2c0,0,0.2,2.8,1.2,4.7"/>
		<path class="st5" d="M59.2,226.6c0,0,1.5,3.2,3.9,4.8"/>
	</g>
	<g>
		<circle class="st4" cx="319" cy="183.1" r="12.8"/>
		<path class="st5" d="M326.4,193.5l-1.2-0.2c0,0-8-1.5-12.4-7.3c0,0,2.2-5.8,5.8-11.7c0,0,6.2,0.4,12,5.5l0.9,1"/>
		<path class="st5" d="M329.8,190.4c0,0-9.1-4.3-15.2-8.6"/>
		<path class="st5" d="M331.4,186c0,0-6.2-5.7-15.4-7.1"/>
		<line class="st5" x1="313.1" y1="186.4" x2="306.6" y2="186.4"/>
		<path class="st5" d="M316.7,189.7c0,0-2.8,1.8-7.9,1.1"/>
		<path class="st5" d="M320.4,191.8c0,0-4.4,3.4-8,2.6"/>
		<path class="st5" d="M319,174.4c0,0-1.4-0.9-3-1.7c-0.7-0.4-1.5-0.7-2.1-0.9"/>
		<path class="st5" d="M309.9,186.4c0,0,0.9-8.6,5.7-13.8"/>
		<path class="st5" d="M326.4,176.9c0,0-0.2-2.8-1.2-4.7"/>
		<path class="st5" d="M323.3,175.5c0,0-1.5-3.2-3.9-4.8"/>
	</g>
</g>
<g id="Layer_2_1_">
	<path class="st11" d="M129.5,202.5c-1.3,1.3-7.5,9.3-7.5,11.3c-1.2-0.7-7.5-1.3-8.8,5c0,11.3,0,13.8-2.9,16.7s-14.7,5.9-18.5,0.4
		c-3.8-5.5-1.3-9.6,0-10.8s6.3-3.8,6.3,0s-3.8,3.8-3.8,3.8s-1.3,1.3,0,2.5c1.3,1.3,2.5,2.5,6.3,2.5c5,0,5-8.8,5-17.6
		C105.6,196.3,126.9,201.3,129.5,202.5z"/>
	<path class="st11" d="M254.3,198.6c-1.4-1.4-14-11.1-15.4-16.7c-1.4-5.6,1.4-12.5,7-12.5c5.6,0,8.4,4.2,7,8.4
		c-2.8,4.2-4.2,5.6-4.2,5.6s0,2.8,2.8,2.8c2.8,0,7-8.4,7-11.1c0-2.8-1.4-8.4-11.2-9.7c-9.8-1.4-21,4.2-21,11.1c0,7,7,18.1,16.8,25.1
		c5.6,4.2,12.6,18.1,8.4,25.1c-2.8,5.6-21,5.6-26.6,0c0,0,22-2.5,25.2-5.6c0,0-1.7-11.3-6.5-15.2c0,0-10.6,6-26-5.1
		c-1.4-1.4,2.8-9.1,4.6-11.9c1.4-4.2-0.9-6.4-4.4-5.4c-4.2,1.4-8.4,2.8-9.8,5.6c0.1-0.3,2.5-5.7,11.2-6.9c0,0,18.2-32,2.8-52.9
		c-11.2-14.9-30.8-15.3-30.8-15.3s-21,0.4-30.8,15.7c-15.4,20.9,2.8,52.9,2.8,52.9c7.9,0.8,10.9,6.2,11.2,6.9
		c-1.4-2.7-5.6-4.1-9.8-5.5c-4-0.5-6.1,1.2-4.9,4.1c1.1,2.9,6.4,10.1,5.5,11.9c0,0.1-0.6,0.7-0.6,0.8c-15.4,11.1-25.2,5.6-25.2,5.6
		c-7.1,5.3-7,15.3-7,15.3c3.9,3.5,25.2,5.6,25.2,5.6c-5.6,5.6-23.8,5.6-26.6,0c-3-4.9-0.3-13.4,3.5-19.4c1.6-2.4,3.3-4.4,4.9-5.6
		c0.5-0.4,1-0.8,1.5-1.1c9-7,15.3-17.3,15.3-23.9c0-6.9-11.2-12.5-21-11.1s-11.2,6.9-11.2,9.7s4.2,11.1,7,11.1
		c2.8,0,2.8-2.8,2.8-2.8s-1.4-1.4-4.2-5.6c-1.4-4.2,1.4-8.4,7-8.4c5.6,0,8.4,6.9,7,12.5c-0.9,3.7-6.7,9.2-11,12.9
		c-2.2,1.9-4,3.4-4.4,3.8c-0.2,0.2-0.8,0.7-1.6,1.6c-4.6,4.7-16.6,18.8-8.2,31.8c9.8,15.3,29.4,13.9,29.4,13.9
		c-7,8.3-1.4,23.6,4.2,29.2c5.6,5.6,12.6,11.1,23.8,5.6c18.2-9.7,15.4-25,13-29.2c-2.4-4.2-11.6-4.2-10.2,0c1.4,4.2,5.6,2.8,5.6,2.8
		s0,0,0,5.6c0,5.6-7,9.7-9.8,9.7c-2.8,0-9.8-1.4-9.8-9.7c0-8.4,5.6-11.1,16.8-16.7c8.2-4.1,9.6-7.7,9.8-9.4c0.4,1.8,2.1,5.2,9.8,9
		c11.2,5.6,16.8,8.4,16.8,16.7c0,8.3-7,9.7-9.8,9.7c-2.8,0-9.8-4.2-9.8-9.7c0-5.6,0-5.6,0-5.6s4.2,1.4,5.6-2.8s-7.7-4.2-10.2,0
		s-5.2,19.5,13,29.2c11.2,5.6,18.2,0,23.8-5.6s11.2-20.9,4.2-29.2c0,0,19.6,1.4,29.4-13.9C273.9,216.8,255.7,200,254.3,198.6z
		 M178.6,204.6c0,0-8.4,0-12.6-13.9C166,190.7,180,194.8,178.6,204.6z M202.4,204.5c-1.4-9.7,12.6-13.9,12.6-13.9
		C210.8,204.5,202.4,204.5,202.4,204.5z"/>
	<path class="st11" d="M252.1,202.5c1.3,1.3,7.5,9.3,7.5,11.3c1.2-0.7,7.5-1.3,8.8,5c0,11.3,0,13.8,2.9,16.7s14.7,5.9,18.5,0.4
		c3.8-5.5,1.3-9.6,0-10.8s-6.3-3.8-6.3,0s3.8,3.8,3.8,3.8s1.3,1.3,0,2.5c-1.3,1.3-2.5,2.5-6.3,2.5c-5,0-5-8.8-5-17.6
		C276,196.3,254.6,201.3,252.1,202.5z"/>
	<path class="st11" d="M134.4,194.9l-5.4,5c-0.5-0.5-0.8-0.8-0.9-1c-1.1-1.1-8.1-10.8-13.1-12.9c-5-2.1-11.9-1.9-12.8,1.4
		s2.5,5.9,6.7,6c4.3-0.7,5.9-1.3,5.9-1.3s2.6,0.6,2.1,2.3c-0.4,1.7-8.9,2.3-11.6,1.7c-2.6-0.6-7.6-2.7-7.3-8.8
		c0.3-6.1,7.3-11.6,13.8-10.1c6.5,1.5,15.8,8.2,20.7,15.6C133,193.5,133.6,194.2,134.4,194.9z"/>
	<path class="st11" d="M144.4,199.9c2,0.6,13.3,1.9,17.3-1.3c0,0-11.3,8.2-20.7,4.4C141.1,202.2,143.7,200.5,144.4,199.9z"/>
	<path class="st11" d="M248.4,194.6l5.5,5c0.5-0.5,0.8-0.9,0.9-1c1.1-1.2,8.3-10.9,13.4-13c5.1-2.1,12.2-1.9,13.2,1.4
		s-2.6,6-6.8,6.1c-4.5-0.8-6-1.3-6-1.3s-2.7,0.6-2.2,2.3c0.5,1.7,9.2,2.4,11.8,1.7c2.7-0.6,7.8-2.7,7.5-8.9s-7.5-11.7-14.2-10.1
		s-16.2,8.2-21.2,15.7C249.9,193.1,249.3,193.8,248.4,194.6z"/>
	<path class="st11" d="M236.8,199.5c-2.1,0.6-13.8,1.9-17.9-1.3c0,0,11.7,8.4,21.3,4.5C240.2,201.4,237.4,200.1,236.8,199.5z"/>
	<path class="st12" d="M124.4,207.7c-1.3,1.9-2.2,3.6-2.3,4.4c-1.2-0.7-7.5-1.3-8.8,5c0,6.4,0,10-0.5,12.4
		c-0.8-2.8-4.2-16.9,2.1-20.5C117.8,207.4,121.3,207.3,124.4,207.7z"/>
	<path class="st12" d="M269.3,229.5c-0.6-2.4-0.6-6-0.6-12.8c-1.3-6.3-7.6-5.7-8.8-5c0-0.7-0.9-2.2-2-3.9c3.1-0.4,6.5-0.3,9.3,1.3
		C273.4,212.6,270,226.6,269.3,229.5z"/>
	<path class="st1" d="M129.7,200.8c-0.8,0.8-3.4,4.1-5.3,6.9c-3.1-0.4-6.6-0.4-9.4,1.3c-6.3,3.6-2.9,17.7-2.1,20.5
		c-0.4,1.9-1.1,3-2.3,4.3c-2.9,2.9-14.7,5.9-18.5,0.4c-3.8-5.5-1.3-9.6,0-10.8s6.3-3.8,6.3,0c0,0.8-0.2,1.4-0.4,1.9
		c-0.2-1.1-0.8-2.9-2.9-2.2c-3,1-4,6-2,8s8,5,11,1c2.2-3,2-8.3,1.8-10.9c0.1-2.1,0.1-4.3,0.1-6.5
		C105.9,194.5,127.2,199.5,129.7,200.8z"/>
	<path class="st1" d="M253.6,195.9c-1.4-1.4-13.9-11.1-15.3-16.7c-1.4-5.6,1.4-12.5,6.9-12.5c5.6,0,8.4,4.2,7,8.4
		c-2.8,4.2-4.2,5.6-4.2,5.6s0,2.8,2.8,2.8c2.8,0,7-8.4,7-11.1s-1.4-8.4-11.1-9.7c-9.7-1.4-20.9,4.2-20.9,11.1c0,7,7,18.1,16.7,25.1
		c5.6,4.2,12.5,18.1,8.3,25.1c-2.8,5.6-20.9,5.6-26.4,0c0,0,21.8-2.5,25.1-5.6c0,0-1.6-11.2-6.4-15.2c0,0-10.5,6-25.8-5.1
		c-1.4-1.4,2.7-9.1,4.6-11.9c1.4-4.2-0.9-6.4-4.4-5.3c-4.2,1.4-6.4,1.4-10.4,4.4c3-3,6-5,11.8-5.8c0,0,18.1-32,2.8-52.9
		C210.5,111.4,191,111,191,111s-20.9,0.4-30.6,15.7c-15.3,20.9,2.8,52.9,2.8,52.9c4.9,0.4,10.5,4.8,10.9,5.4c-4-3-6-3-9.5-4.1
		c-4-0.5-6,1.2-4.9,4.1c1.1,2.9,6.4,10.1,5.5,11.9c0,0.1-0.6,0.7-0.6,0.8c-15.3,11.1-25.1,5.6-25.1,5.6c-7.1,5.3-7,15.3-7,15.3
		c3.9,3.5,25.1,5.6,25.1,5.6c-5.6,5.6-23.7,5.6-26.4,0c-3-5-0.3-13.4,3.5-19.4c1.5-2.4,5.9-6.4,6.4-6.8c8.9-7,15.2-17.3,15.2-23.9
		c0-6.9-11.1-12.5-20.9-11.1s-11.1,6.9-11.1,9.7c0,2.8,4.2,11.1,7,11.1c0.9,0,1.5-0.3,1.9-0.6c-1.8-1.7-5.3-5.4-6-9.1
		c-1-5,6-11,15-8s9,15,0,24s-28,23-14,41c7,9,19,12,19,12l0.6,0.6c0.2,0,0.2,0,0.2,0c0,0.1-0.1,0.1-0.1,0.1
		c-6.8,8.4-1.3,23.5,4.3,29.1c5.6,5.6,12.5,11.1,23.6,5.6c18.1-9.7,15.3-25,12.9-29.2c-2.4-4.2-11.5-4.2-10.1,0
		c0.4,1.2,1,1.9,1.7,2.4c0.5-0.9,2.2-3.7,3.8-3.7c3,0,4,5,4,10s-11,19-22,15s-12-21-6-28c5.7-6.6,24.9-9.7,31.1-19.4
		c6.2,9.7,25.4,12.7,31.1,19.4c6,7,5,24-6,28s-22-10-22-15s1-10,4-10c1.5,0,2.9,2.2,3.6,3.3c0.7-0.4,1.3-1.2,1.7-2.4
		c1.4-4.2-7.7-4.2-10.1,0c-2.4,4.2-5.2,19.5,12.9,29.2c11.1,5.6,18.1,0,23.7-5.6c5.6-5.6,11.1-20.9,4.2-29.2c0,0,19.5,1.4,29.2-13.9
		C273.1,214,255,197.3,253.6,195.9z M178.4,201.8c0,0-8.4,0-12.5-13.9C165.9,187.9,179.8,192.1,178.4,201.8z M202.1,201.8
		c-1.4-9.7,12.5-13.9,12.5-13.9C210.4,201.8,202.1,201.8,202.1,201.8z"/>
	<path class="st12" d="M216.2,272.9c-11,4-22-10-22-15s1-10,4-10c1.5,0,2.9,2.2,3.6,3.3c-1.7,1.1-3.9,0.4-3.9,0.4s0,0,0,5.6
		c0,5.6,7,9.7,9.7,9.7s9.8-1.4,9.8-9.7c0-8.4-5.6-11.1-16.7-16.7c-7.6-3.8-9.4-7.2-9.7-9c-0.2,1.7-1.6,5.3-9.8,9.4
		c-11.1,5.6-16.7,8.3-16.7,16.7c0,8.4,7,9.7,9.8,9.7c2.8,0,9.7-4.2,9.7-9.7s0-5.6,0-5.6s-2.1,0.7-3.9-0.4c0.5-0.9,2.2-3.7,3.8-3.7
		c3,0,4,5,4,10s-11,19-22,15s-12-21-6-28c5.7-6.6,24.9-9.7,31.1-19.4c6.2,9.7,25.4,12.7,31.1,19.4
		C228.2,251.9,227.2,268.9,216.2,272.9z"/>
	<path class="st12" d="M289,230.8c-2,2-8,5-11,1c-2.3-3.1-2-8.8-1.7-11.2c0.2,6.2,1.2,11.2,4.9,11.2s5-1.3,6.3-2.5
		c1.3-1.3,0-2.5,0-2.5s-2.4,0-3.4-1.9c0.2-1.1,0.9-2.7,2.9-2C290,223.8,291,228.8,289,230.8z"/>
	<path class="st1" d="M290,233.8c-3.8,5.5-15.6,2.4-18.5-0.4c-1.2-1.2-1.8-2.3-2.3-3.9c0.8-2.9,4.1-16.9-2.1-20.5
		c-2.8-1.6-6.2-1.7-9.3-1.3c-1.9-3-4.8-6.6-5.5-7.4c2.5-1.3,23.8-6.3,23.8,13.8c0,2.2,0,4.4,0.1,6.4c-0.3,2.4-0.6,8.1,1.7,11.2
		c3,4,9,1,11-1s1-7-2-8c-2-0.7-2.7,0.9-2.9,2c-0.2-0.5-0.4-1.1-0.4-1.8c0-3.8,5-1.3,6.3,0C291.3,224.2,293.8,228.3,290,233.8z"/>
	<path class="st12" d="M131.1,194.6l-2.8,2.6c-0.5-0.5-0.8-0.8-0.9-1c-1.1-1.1-8.1-10.8-13.1-12.9c-5-2.1-11.9-1.9-12.8,1.4
		c-0.9,3.4,2.5,5.9,6.7,6c4.3-0.7,5.9-1.3,5.9-1.3s1.1,0.3,1.7,0.9c-2.5,0.9-9,2.9-12.6,1c-4.5-2.4-5.5-12.4,3.5-12.4s16,6,19,10
		C126.7,190.4,128.8,192.5,131.1,194.6z"/>
	<path class="st1" d="M133.6,192.2l-2.6,2.4c-2.3-2.1-4.4-4.2-5.4-5.6c-3-4-10-10-19-10s-8,10-3.6,12.4c3.6,1.9,10.1-0.1,12.6-1
		c0.4,0.4,0.6,0.8,0.4,1.4c-0.4,1.7-8.9,2.3-11.6,1.7c-2.6-0.6-7.6-2.7-7.3-8.8c0.3-6.1,7.3-11.6,13.9-10.1
		c6.5,1.5,15.8,8.2,20.7,15.6C132.2,190.8,132.9,191.5,133.6,192.2z"/>
	<path class="st1" d="M145.6,198.1c2,0.6,13.3,1.9,17.3-1.3c0,0-11.3,8.2-20.7,4.4C142.3,200.4,145,198.7,145.6,198.1z"/>
	<path class="st12" d="M280,191.4c-3.8,2.1-11.2-0.5-13.1-1.2c0.6-0.8,2-1.1,2-1.1s1.6,0.5,6,1.3c4.2-0.1,7.8-2.7,6.8-6.1
		c-0.9-3.4-8.1-3.5-13.2-1.4c-5.1,2.1-12.3,11.8-13.4,13c-0.1,0.1-0.4,0.5-0.9,1l-2.3-2.1c2.3-2.1,4.5-4.3,5.6-5.7c3-4,10-10,19-10
		S284.5,189,280,191.4z"/>
	<path class="st1" d="M286,184.2c0.3,6.2-4.8,8.3-7.5,8.9c-2.7,0.6-11.4,0-11.8-1.7c-0.1-0.5,0-0.9,0.2-1.2
		c1.9,0.7,9.3,3.3,13.1,1.2c4.5-2.4,5.5-12.4-3.5-12.4s-16,6-19,10c-1.1,1.5-3.3,3.6-5.6,5.7l-3.2-2.9c0.8-0.7,1.5-1.4,1.9-2.1
		c5-7.4,14.5-14.1,21.2-15.7C278.5,172.5,285.7,178,286,184.2z"/>
	<path class="st1" d="M237,197.7c-2.1,0.6-13.8,1.9-17.9-1.3c0,0,11.7,8.4,21.3,4.5C240.4,199.7,237.7,198.4,237,197.7z"/>
	<path class="st11" d="M175,187"/>
	<path class="st12" d="M175,186.2c0,0,8.6,0.8,11.1,7.1c0.9,2.4,0.9,3.9,0.9,3.9s0,3.9-2.6,0C181.9,193.2,181,190.9,175,186.2z"/>
	<path class="st12" d="M205.8,186.2c0,0-8.6,0.8-11.1,7.1c-0.9,2.4-0.9,3.9-0.9,3.9s0,3.9,2.6,0
		C198.9,193.2,199.8,190.9,205.8,186.2z"/>
	<path class="st12" d="M147,243l0.6,0.6c-2.3,0.1-19.9,0.4-29-13.9c-8.3-13.1,3.6-27.1,8.2-31.8c0.8-0.8,1.4-1.4,1.6-1.6
		c0.5-0.5,2.2-1.9,4.4-3.8c4.2-3.7,10-9.2,10.9-12.9c1.4-5.6-1.4-12.5-6.9-12.5s-8.4,4.2-6.9,8.4c2.8,4.2,4.2,5.6,4.2,5.6
		s0,1.3-0.9,2.1c-1.8-1.7-5.3-5.4-6-9.1c-1-5,6-11,15-8s9,15,0,24s-28,23-14,41C135,240,147,243,147,243z"/>
	<path class="st12" d="M234.9,242.6l-0.6,0.6c2.3,0.1,19.9,0.4,29-13.9c8.3-13.1-3.6-27.1-8.2-31.8c-0.8-0.8-1.4-1.4-1.6-1.6
		c-0.5-0.5-2.2-1.9-4.4-3.8c-4.2-3.7-10-9.2-10.9-12.9c-1.4-5.6,1.4-12.5,6.9-12.5s8.4,4.2,6.9,8.4c-2.8,4.2-4.2,5.6-4.2,5.6
		s0,1.3,0.9,2.1c1.8-1.7,5.3-5.4,6-9.1c1-5-6-11-15-8s-9,15,0,24s28,23,14,41C246.9,239.6,234.9,242.6,234.9,242.6z"/>
	<path class="st12" d="M104,232c-3,4-9,1-11-1s-1-7,2-8c2.1-0.7,2.8,1.1,2.9,2.2c-1,1.9-3.4,1.9-3.4,1.9s-1.3,1.3,0,2.5
		c1.3,1.3,2.5,2.5,6.3,2.5c3.8,0,4.7-4.9,4.9-11C106,223.7,106.2,229,104,232z"/>
</g>
</svg>
